<?xml version="1.0" encoding="iso-8859-1"?>
<!-- Generator: Adobe Illustrator 19.0.0, SVG Export Plug-In . SVG Version: 6.00 Build 0)  -->
<svg version="1.1" id="Layer_1" xmlns="http://www.w3.org/2000/svg" xmlns:xlink="http://www.w3.org/1999/xlink" x="0px" y="0px"
	 viewBox="0 0 512.655 512.655" style="enable-background:new 0 0 512.655 512.655;" xml:space="preserve">
<g transform="translate(1)">
	<g>
		<path style="fill:#FDCC00;" d="M250.488,229.151L250.488,229.151c-7.68-5.973-9.387-16.213-3.413-23.893l15.36-20.48
			c5.973-7.68,16.213-9.387,23.893-3.413l0,0c7.68,5.973,9.387,16.213,3.413,23.893l-15.36,20.48
			C268.408,233.418,258.168,235.125,250.488,229.151"/>
		<path style="fill:#FDCC00;" d="M306.808,263.285L306.808,263.285c-7.68-5.973-9.387-16.213-3.413-23.893l15.36-20.48
			c5.973-7.68,16.213-9.387,23.893-3.413l0,0c7.68,5.973,9.387,16.213,3.413,23.893l-15.36,20.48
			C325.582,267.551,314.488,269.258,306.808,263.285"/>
	</g>
	<g>
		<path style="fill:#FFE100;" d="M464.675,286.325c-25.6,0.853-53.76-14.507-53.76-14.507l-68.267-27.307l-11.947,15.36
			c-5.973,7.68-16.213,9.387-23.893,3.413c-7.68-5.973-9.387-16.213-3.413-23.893l7.68-10.24
			c-9.387-5.12-17.92-11.093-26.453-17.067l-10.24,13.653c-5.973,7.68-16.213,9.387-23.893,3.413
			c-7.68-5.973-9.387-16.213-3.413-23.893l11.093-14.507c-5.973-5.973-11.947-11.947-17.92-18.773
			c-21.333-25.6-46.933-50.347-62.293-47.787c-29.867,5.12-59.733,34.133-145.067,34.133v85.333c0,0-51.2,43.52-8.533,102.4h45.227
			h347.307c5.12,0,10.24-2.56,14.507-5.973c1.707-1.707,4.267-3.413,6.827-4.267c13.653-5.12,65.707-17.92,64-28.16
			C500.515,295.711,490.275,285.471,464.675,286.325"/>
		<path style="fill:#FFE100;" d="M502.222,307.658L502.222,307.658c1.707,10.24-50.347,22.187-64,28.16
			c-2.56,0.853-5.12,2.56-6.827,4.267c-0.853,0.853-1.707,1.707-3.413,2.56c-3.413,2.56-6.827,3.413-11.093,3.413H68.728H24.355
			c-11.093,15.36-9.387,25.6-4.267,32.427s12.8,10.24,21.333,10.24h337.067c38.4,0,75.947-8.533,110.08-24.747l4.267-1.707
			C503.928,357.151,502.222,307.658,502.222,307.658"/>
		<path style="fill:#FFE100;" d="M58.488,243.658v-85.333c74.24,0,106.667-22.187,133.12-30.72c-5.12-2.56-10.24-4.267-13.653-3.413
			c-29.867,5.12-59.733,34.133-145.067,34.133v85.333c0,0-51.2,43.52-8.533,102.4h25.6C7.288,287.178,58.488,243.658,58.488,243.658
			"/>
		<path style="fill:#FFE100;" d="M63.608,243.658v-85.333c74.24,0,106.667-22.187,133.12-30.72c-5.12-2.56-10.24-3.413-13.653-3.413
			c-29.867,5.12-59.733,34.133-145.067,34.133v85.333c0,0-51.2,43.52-8.533,102.4h25.6
			C12.408,287.178,63.608,243.658,63.608,243.658"/>
	</g>
	<path style="fill:#FFFFFF;" d="M32.888,158.325v85.333c0,0-51.2,43.52-8.533,102.4h25.6c-42.667-58.88,8.533-102.4,8.533-102.4
		v-85.333H32.888z"/>
	<g>
		<path style="fill:#FFE100;" d="M45.688,378.485c-5.12-6.827-7.68-17.067,4.267-32.427h-25.6
			c-11.093,15.36-9.387,25.6-4.267,32.427s12.8,10.24,21.333,10.24h25.6C58.488,388.725,50.808,385.311,45.688,378.485"/>
		<path style="fill:#FFE100;" d="M50.808,378.485c-5.12-6.827-7.68-17.067,4.267-32.427h-25.6
			c-11.093,15.36-9.387,25.6-4.267,32.427s12.8,10.24,21.333,10.24h25.6C63.608,388.725,55.928,385.311,50.808,378.485"/>
	</g>
	<path style="fill:#FFFFFF;" d="M45.688,378.485c-5.12-6.827-7.68-17.067,4.267-32.427h-25.6c-11.093,15.36-9.387,25.6-4.267,32.427
		s12.8,10.24,21.333,10.24h25.6C58.488,388.725,50.808,385.311,45.688,378.485"/>
	<g>
		<path style="fill:#FFA800;" d="M438.222,335.818c13.653-5.12,64.853-17.92,64-28.16c-1.707-11.947-11.947-22.187-36.693-21.333
			h-25.6c25.6-0.853,35.84,9.387,36.693,21.333c0.853,10.24-50.347,33.28-64,38.4L438.222,335.818z"/>
		<path style="fill:#FFA800;" d="M502.222,307.658L502.222,307.658c0.853,5.12-11.093,10.24-25.6,15.36
			c-0.853,14.507-2.56,34.987-8.533,38.4l-4.267,1.707c-34.987,17.067-72.533,25.6-110.08,25.6h25.6
			c38.4,0,75.947-8.533,110.08-24.747l4.267-1.707C503.928,357.151,502.222,307.658,502.222,307.658"/>
	</g>
	<g>
		<path style="fill:#FDCC00;" d="M177.955,124.191c-1.707,0-3.413,0.853-5.973,0.853c-0.853,0-1.707,0.853-2.56,0.853
			c-0.853,0-1.707,0.853-2.56,0.853c-1.707,0.853-3.413,0.853-5.12,1.707h-0.853c-11.093,4.267-23.04,9.387-37.547,15.36
			l155.307,147.627c24.747,18.773,59.733,13.653,78.507-10.24l17.92-23.893l-31.573-12.8l-4.267,5.973l-2.56,3.413
			c0,0-1.707,1.707-2.56,3.413l-0.853,1.707l-0.853,0.853l0,0v0.853c-0.853,0.853-1.707,1.707-2.56,2.56
			c-0.853,0.853-1.707,0.853-2.56,1.707c-5.973,3.413-13.653,3.413-19.627-0.853c-2.56-1.707-4.267-4.267-5.12-6.827
			c0-0.853-0.853-1.707-0.853-2.56c-0.853-3.413-0.853-6.827,0.853-9.387c0.853-1.707,1.707-3.413,2.56-4.267l7.68-10.24
			c-6.827-4.267-13.653-8.533-19.627-12.8c-2.56-1.707-4.267-2.56-6.827-4.267l-10.24,13.653c-0.853,0.853-1.707,1.707-2.56,2.56
			s-1.707,0.853-2.56,1.707c-5.973,3.413-13.653,3.413-19.627-0.853c-2.56-1.707-4.267-4.267-5.12-6.827
			c0-0.853-0.853-1.707-0.853-2.56c-0.853-5.12,0-10.24,2.56-14.507l2.56-3.413c2.56-4.267,5.973-7.68,8.533-11.947
			c0,0-10.24-10.24-11.093-11.093c-3.413-3.413-6.827-7.68-10.24-11.093c-6.827-7.68-13.653-15.36-20.48-22.187
			c-4.267-4.267-8.533-8.533-13.653-11.947C196.728,129.311,186.488,122.485,177.955,124.191"/>
		<path style="fill:#FDCC00;" d="M157.475,177.098c-20.48,24.747-42.667,61.44-58.88,89.6c-14.507,24.747-23.893,51.2-29.867,79.36
			h0.853h85.333c5.973-5.12,11.093-11.093,13.653-18.773c3.413-10.24,31.573-46.08,62.293-81.067L157.475,177.098z"/>
	</g>
	<path style="fill:#63D3FD;" d="M189.902,294.858c7.68-10.24,17.92-22.187,28.16-34.133H102.008
		c-0.853,1.707-2.56,4.267-3.413,5.973c-5.973,9.387-10.24,18.773-13.653,28.16H189.902z"/>
	<path d="M260.728,241.098c-5.973,0-11.093-1.707-15.36-5.12c-5.12-4.267-9.387-10.24-10.24-17.067
		c-0.853-6.827,0.853-13.653,5.12-18.773l15.36-20.48c5.12-6.827,11.947-10.24,20.48-10.24c5.973,0,11.093,1.707,15.36,5.12
		c5.12,4.267,9.387,10.24,10.24,17.067c0.853,6.827-0.853,13.653-5.12,18.773l-15.36,20.48
		C276.088,237.685,269.262,241.098,260.728,241.098z M276.088,186.485c-2.56,0-5.12,0.853-6.827,3.413l-15.36,20.48
		c-2.56,3.413-1.707,9.387,1.707,11.947c3.413,2.56,9.387,1.707,11.947-1.707l15.36-20.48c1.707-1.707,1.707-4.267,1.707-5.973
		c0-2.56-1.707-4.267-3.413-5.973C280.355,187.338,277.795,186.485,276.088,186.485z"/>
	<path d="M317.048,275.232c-5.973,0-11.093-1.707-15.36-5.12c-5.12-4.267-9.387-10.24-10.24-17.067
		c-0.853-6.827,0.853-13.653,5.12-18.773l15.36-20.48c5.12-6.827,11.947-10.24,20.48-10.24c5.973,0,11.093,1.707,15.36,5.12
		c5.12,4.267,9.387,10.24,10.24,17.067s-0.853,13.653-5.12,18.773l-15.36,20.48C333.262,271.818,325.582,275.232,317.048,275.232z
		 M332.408,220.618c-2.56,0-5.12,0.853-6.827,3.413l-15.36,20.48c-1.707,1.707-1.707,4.267-1.707,5.973
		c0,2.56,1.707,4.267,3.413,5.973c3.413,2.56,9.387,1.707,11.947-1.707l15.36-20.48c1.707-1.707,1.707-4.267,1.707-5.973
		s-1.707-4.267-3.413-5.973C336.675,221.471,334.968,220.618,332.408,220.618z"/>
	<path d="M416.888,354.591H24.355c-2.56,0-5.12-1.707-6.827-3.413c-40.107-56.32-4.267-99.84,6.827-110.933v-81.92
		c0-5.12,3.413-8.533,8.533-8.533c57.173,0,87.893-12.8,111.787-23.04c11.093-5.12,21.333-9.387,31.573-11.093
		c16.213-2.56,39.253,13.653,70.827,50.347c5.12,5.973,11.093,11.947,17.067,17.92c3.413,3.413,3.413,7.68,0.853,11.093
		l-11.093,14.507c-2.56,3.413-1.707,9.387,1.707,11.947s9.387,1.707,11.947-1.707l10.24-13.653c2.56-3.413,7.68-4.267,11.947-1.707
		c9.387,6.827,17.92,11.947,25.6,17.067c2.56,0.853,3.413,3.413,4.267,5.973c0.853,2.56,0,5.12-1.707,6.827l-7.68,10.24
		c-1.707,1.707-1.707,4.267-1.707,5.973c0,2.56,1.707,4.267,3.413,5.973c3.413,2.56,9.387,1.707,11.947-1.707l11.947-15.36
		c2.56-3.413,6.827-4.267,10.24-2.56l68.267,27.307h0.853c0,0,25.6,13.653,47.787,13.653h4.267c35.84,0,41.813,20.48,42.667,29.013
		c1.707,13.653-16.213,20.48-54.613,31.573c-6.827,1.707-11.947,3.413-15.36,5.12c-1.707,0.853-2.56,1.707-4.267,2.56
		C431.395,351.178,424.568,354.591,416.888,354.591z M28.622,337.525h388.267c3.413,0,5.973-0.853,8.533-3.413
		c2.56-2.56,5.973-5.12,10.24-6.827c3.413-1.707,9.387-3.413,16.213-5.12c11.093-3.413,35.84-11.093,41.813-15.36
		c-2.56-9.387-15.36-11.947-25.6-11.947h-4.267c-25.6,0-52.053-13.653-55.467-15.36l-62.293-24.747l-7.68,10.24
		c-8.533,11.093-24.747,12.8-35.84,5.12c-5.12-4.267-9.387-10.24-10.24-17.067c-0.853-6.827,0.853-13.653,5.12-18.773l1.707-2.56
		c-4.267-2.56-7.68-5.12-11.947-7.68l-5.12,6.827c-5.12,6.827-11.947,10.24-20.48,10.24c-5.973,0-11.093-1.707-15.36-5.12
		c-11.093-8.533-13.653-24.747-5.12-35.84l6.827-8.533c-5.12-5.12-9.387-9.387-12.8-14.507c-36.693-40.96-51.2-44.373-54.613-44.373
		h-0.853c-8.533,1.707-17.067,5.12-28.16,9.387c-23.04,10.24-54.613,23.04-110.08,24.747v76.8c0,2.56-0.853,5.12-3.413,6.827
		C36.302,251.338-3.805,287.178,28.622,337.525z"/>
	<path d="M379.342,397.258H41.422c-11.093,0-22.187-5.12-28.16-13.653c-5.12-6.827-11.947-22.187,4.267-42.667
		c1.707-2.56,4.267-3.413,6.827-3.413h392.533c2.56,0,4.267-0.853,6.827-1.707c0.853-0.853,0.853-0.853,1.707-1.707
		c2.56-2.56,5.973-5.12,10.24-6.827c3.413-1.707,9.387-3.413,16.213-5.12c11.093-3.413,36.693-11.093,42.667-16.213
		c0.853-3.413,3.413-6.827,7.68-6.827s8.533,2.56,9.387,6.827v0.853l0,0l0,0v0.853l0,0c0.853,53.76-10.24,59.733-13.653,61.44
		l-5.12,2.56C456.995,388.725,417.742,397.258,379.342,397.258z M28.622,354.591c-7.68,11.093-3.413,17.067-1.707,18.773
		c3.413,4.267,8.533,6.827,14.507,6.827h337.067c36.693,0,73.387-8.533,106.667-23.893l3.413-1.707
		c1.707-2.56,4.267-13.653,4.267-28.16c-8.533,4.267-21.333,7.68-36.693,12.8c-6.827,1.707-11.947,3.413-15.36,5.12
		c-1.707,0.853-2.56,1.707-4.267,2.56c-1.707,1.707-2.56,2.56-4.267,3.413c-4.267,2.56-9.387,4.267-15.36,4.267H28.622z"/>
	<path d="M154.062,354.591H68.728c-2.56,0-5.12-0.853-6.827-3.413s-2.56-4.267-1.707-6.827c5.973-29.013,16.213-56.32,30.72-81.92
		c15.36-27.307,38.4-64.853,59.733-91.307c1.707-1.707,3.413-3.413,5.973-3.413s5.12,0.853,6.827,2.56l73.387,69.12
		c3.413,3.413,3.413,8.533,0.853,11.947c-33.28,37.547-58.027,70.827-60.587,77.653c-3.413,8.533-8.533,16.213-17.067,23.04
		C158.328,353.738,155.768,354.591,154.062,354.591z M78.968,337.525h71.68c4.267-4.267,7.68-8.533,9.387-13.653
		c4.267-11.947,32.427-47.787,58.027-77.653l-60.587-57.173c-18.773,24.747-38.4,57.173-52.053,81.92
		C93.475,292.298,84.942,314.485,78.968,337.525z"/>
	<path d="M189.902,303.391H84.942c-2.56,0-5.12-1.707-6.827-3.413c-1.707-1.707-2.56-5.973-1.707-8.533
		c5.12-11.093,9.387-20.48,14.507-29.013l3.413-5.973c1.707-2.56,4.267-4.267,7.68-4.267h116.053c3.413,0,5.973,1.707,7.68,5.12
		c1.707,3.413,0.853,6.827-0.853,9.387c-10.24,11.947-19.627,23.04-27.307,34.133C195.022,302.538,192.462,303.391,189.902,303.391z
		 M97.742,286.325h87.893c4.267-5.12,8.533-11.093,13.653-17.067h-92.16l-0.853,1.707
		C102.862,276.085,100.302,281.205,97.742,286.325z"/>
	<path d="M311.928,311.925c-14.507,0-27.307-4.267-39.253-13.653c0,0-0.853,0-0.853-0.853L117.368,150.645
		c-2.56-1.707-3.413-5.12-2.56-7.68s2.56-5.12,5.12-5.973c9.387-3.413,17.92-6.827,24.747-9.387c4.267-1.707,8.533-3.413,12.8-5.12
		h0.853c1.707-0.853,3.413-1.707,5.12-1.707c0.853,0,1.707-0.853,2.56-0.853h0.853h0.853c0.853,0,1.707-0.853,2.56-0.853
		c2.56-0.853,4.267-0.853,6.827-1.707c11.947-1.707,22.187,4.267,31.573,11.947c5.12,3.413,9.387,7.68,14.507,11.947
		c7.68,7.68,15.36,15.36,21.333,22.187l1.707,1.707c2.56,2.56,5.12,5.973,7.68,8.533c0,0,1.707,1.707,4.267,4.267
		c8.533,8.533,11.947,11.947,7.68,17.92l-8.533,11.947l0,0l-2.56,3.413c-1.707,2.56-1.707,5.973-1.707,6.827
		c0,0.853,0,0.853,0.853,1.707c0.853,1.707,1.707,2.56,2.56,3.413c2.56,1.707,6.827,2.56,9.387,0l0.853-0.853
		c0.853,0,0.853-0.853,0.853-0.853c0.853-0.853,10.24-13.653,10.24-13.653c2.56-3.413,7.68-4.267,11.947-1.707
		c1.707,0.853,2.56,1.707,4.267,2.56l2.56,1.707c7.68,5.12,13.653,9.387,19.627,11.947c2.56,0.853,3.413,3.413,4.267,5.973
		c0.853,2.56,0,5.12-1.707,6.827l-7.68,10.24c0,0.853-0.853,0.853-0.853,2.56c-0.853,1.707-0.853,3.413,0,5.12
		c0,0.853,0,0.853,0.853,1.707c0.853,1.707,1.707,2.56,2.56,3.413c2.56,1.707,6.827,2.56,9.387,0l0.853-0.853l0.853-0.853
		l0.853-0.853l11.093-14.507c2.56-3.413,6.827-4.267,10.24-2.56l31.573,12.8c2.56,0.853,4.267,3.413,5.12,5.973
		c0.853,2.56,0,5.12-1.707,7.68l-18.773,21.333C351.182,302.538,332.408,311.925,311.928,311.925z M283.768,285.471
		c8.533,5.973,17.92,9.387,28.16,9.387c14.507,0,29.013-6.827,37.547-18.773l11.947-15.36l-15.36-5.973l-6.827,8.533l-0.853,0.853
		l-7.68-4.267l6.827,5.12c-0.853,1.707-1.707,2.56-3.413,3.413c-0.853,0.853-1.707,1.707-3.413,2.56
		c-9.387,5.973-20.48,5.12-29.013-0.853c-3.413-2.56-5.973-5.973-7.68-10.24c-0.853-1.707-0.853-3.413-1.707-4.267
		c-0.853-5.12-0.853-9.387,0.853-14.507c0.853-2.56,1.707-5.12,3.413-6.827l1.707-2.56c-3.413-2.56-7.68-5.12-11.947-7.68
		c-2.56,3.413-5.12,6.827-5.12,7.68c-0.853,0.853-1.707,2.56-3.413,3.413c-0.853,0.853-2.56,1.707-3.413,2.56
		c-9.387,5.973-20.48,5.12-29.013-0.853c-3.413-2.56-5.973-5.973-7.68-10.24c-0.853-1.707-0.853-2.56-1.707-4.267
		c-1.707-7.68,0-15.36,4.267-21.333c0.853-1.707,1.707-2.56,2.56-3.413l0,0l4.267-5.973c-0.853-0.853-0.853-1.707-1.707-1.707
		c-1.707-1.707-4.267-4.267-4.267-4.267c-2.56-2.56-5.12-5.973-7.68-9.387l-2.56-2.56c-5.973-6.827-12.8-14.507-20.48-21.333
		c-4.267-4.267-8.533-7.68-12.8-11.093c-4.267-3.413-11.947-9.387-18.773-8.533c-1.707,0-3.413,0.853-5.12,0.853l-4.267,1.707
		c-1.707,0.853-3.413,0.853-5.12,1.707c-4.267,1.707-8.533,3.413-12.8,5.12s-8.533,3.413-12.8,5.12L283.768,285.471z"/>
</g>
<g>
</g>
<g>
</g>
<g>
</g>
<g>
</g>
<g>
</g>
<g>
</g>
<g>
</g>
<g>
</g>
<g>
</g>
<g>
</g>
<g>
</g>
<g>
</g>
<g>
</g>
<g>
</g>
<g>
</g>
</svg>
