<?xml version="1.0" encoding="iso-8859-1"?>
<!-- Generator: Adobe Illustrator 17.1.0, SVG Export Plug-In . SVG Version: 6.00 Build 0)  -->
<!DOCTYPE svg PUBLIC "-//W3C//DTD SVG 1.1//EN" "http://www.w3.org/Graphics/SVG/1.1/DTD/svg11.dtd">
<svg version="1.1" id="Capa_1" xmlns="http://www.w3.org/2000/svg" xmlns:xlink="http://www.w3.org/1999/xlink" x="0px" y="0px"
	 viewBox="0 0 442 442" style="enable-background:new 0 0 442 442;" xml:space="preserve">
<g>
	<path d="M363.705,0H98.681C81.926,0,68.295,13.632,68.295,30.387v32.471c-11.856,4.145-20.387,15.436-20.387,28.688v161.925
		c-11.856,4.145-20.386,15.436-20.386,28.688v40.773c0,13.252,8.531,24.542,20.386,28.687v59.994
		C47.908,428.368,61.54,442,78.295,442h285.41c27.996,0,50.773-22.776,50.773-50.772V50.772C414.478,22.776,391.701,0,363.705,0z
		 M47.522,282.159c0-5.728,4.659-10.387,10.386-10.387h99.675v61.546H57.908c-5.727,0-10.386-4.659-10.386-10.386V282.159z
		 M198.353,353.705h-20.769v-10.377c0-0.003,0-0.007,0-0.01s0-0.006,0-0.01v-91.922h20.769V353.705z M394.478,391.228
		c0,16.968-13.805,30.772-30.773,30.772h-5.29V156.782c0-5.522-4.477-10-10-10s-10,4.478-10,10V422H78.295
		c-5.727,0-10.387-4.659-10.387-10.387v-58.295h89.675v20.58c0,5.522,4.477,10,10,10s10-4.478,10-10v-0.193h20.769v0.193
		c0,5.522,4.477,10,10,10s10-4.478,10-10V231.193c0-5.522-4.477-10-10-10s-10,4.478-10,10v0.193h-20.769v-0.193
		c0-5.522-4.477-10-10-10s-10,4.478-10,10v20.579H67.908V91.546c0-5.728,4.66-10.387,10.387-10.387h260.121v45.043
		c0,5.522,4.477,10,10,10s10-4.478,10-10V79.094c8.985-3.884,15.29-12.83,15.29-23.225c0-5.522-4.477-10-10-10s-10,4.478-10,10
		c0,2.917-2.373,5.29-5.29,5.29H88.295V50.58h239.734c5.523,0,10-4.478,10-10s-4.477-10-10-10H88.295v-0.193
		C88.295,24.659,92.954,20,98.681,20h265.024c16.968,0,30.773,13.805,30.773,30.772V391.228z"/>
	<path d="M276.043,251.772h-37.111c-5.523,0-10,4.478-10,10s4.477,10,10,10h37.111c5.727,0,10.387,4.659,10.387,10.387v40.773
		c0,5.727-4.66,10.386-10.387,10.386h-37.111c-5.523,0-10,4.478-10,10s4.477,10,10,10h37.111c16.755,0,30.387-13.631,30.387-30.386
		v-40.773C306.43,265.404,292.799,251.772,276.043,251.772z"/>
</g>
<g>
</g>
<g>
</g>
<g>
</g>
<g>
</g>
<g>
</g>
<g>
</g>
<g>
</g>
<g>
</g>
<g>
</g>
<g>
</g>
<g>
</g>
<g>
</g>
<g>
</g>
<g>
</g>
<g>
</g>
</svg>
