<?xml version="1.0" encoding="iso-8859-1"?>
<!-- Generator: Adobe Illustrator 19.0.0, SVG Export Plug-In . SVG Version: 6.00 Build 0)  -->
<svg version="1.1" id="Layer_1" xmlns="http://www.w3.org/2000/svg" xmlns:xlink="http://www.w3.org/1999/xlink" x="0px" y="0px"
	 viewBox="0 0 512 512" style="enable-background:new 0 0 512 512;" xml:space="preserve">
<path style="fill:#3797D3;" d="M415.119,512H96.88c-11.706,0-20.532-10.628-18.423-22.115l45.709-248.964v-57.078l-11.511-75.406
	c-0.712-4.663,0.362-9.425,3.007-13.331c15.208-22.454,23.072-51.446,20.038-73.86C134.177,10.004,142.931,0,154.261,0h203.476
	c11.34,0,20.08,10.011,18.563,21.239c-3.031,22.433,4.834,51.427,20.034,73.864c2.647,3.906,3.721,8.668,3.01,13.333l-11.511,75.406
	v57.078l45.71,248.964C435.656,501.399,426.798,512,415.119,512z"/>
<path style="fill:#4881C2;" d="M433.542,489.885l-45.709-248.964v-57.078l11.511-75.406c0.712-4.664-0.362-9.427-3.01-13.333
	c-15.2-22.438-23.065-51.432-20.034-73.864C377.818,10.011,369.078,0,357.737,0H255.999v512h159.12
	C426.798,512,435.656,501.399,433.542,489.885z"/>
<path style="fill:#2F66A3;" d="M310.527,210.912c-0.632-10.327-9.532-18.217-19.841-17.553
	c-10.326,0.632-18.185,9.514-17.553,19.841L291.42,512h37.533L310.527,210.912z"/>
<g>
	<path style="fill:#4881C2;" d="M201.47,210.912c0.632-10.327,9.532-18.217,19.841-17.553c10.326,0.632,18.185,9.514,17.553,19.841
		L220.579,512h-37.533L201.47,210.912z"/>
	<path style="fill:#4881C2;" d="M210.496,53.776c16.962,46.039,74.016,46.11,91.005,0C315.124,16.805,319.203,11.234,314.374,0
		h-116.75C192.857,11.09,196.721,16.389,210.496,53.776z"/>
</g>
<polygon style="fill:#FFC72D;" points="120.414,261.355 391.584,261.355 387.833,240.921 387.833,183.843 390.91,163.688 
	121.089,163.688 124.166,183.843 124.166,240.921 "/>
<path style="fill:#2F66A3;" d="M314.374,0h-58.374v88.331c18.504,0.005,37.01-11.504,45.503-34.555
	C315.124,16.805,319.203,11.235,314.374,0z"/>
<polygon style="fill:#FFAF00;" points="387.833,240.921 387.833,183.843 390.91,163.688 255.999,163.688 255.999,261.355 
	391.584,261.355 "/>
<g>
</g>
<g>
</g>
<g>
</g>
<g>
</g>
<g>
</g>
<g>
</g>
<g>
</g>
<g>
</g>
<g>
</g>
<g>
</g>
<g>
</g>
<g>
</g>
<g>
</g>
<g>
</g>
<g>
</g>
</svg>
