<?xml version="1.0" encoding="iso-8859-1"?>
<!-- Generator: Adobe Illustrator 19.0.0, SVG Export Plug-In . SVG Version: 6.00 Build 0)  -->
<svg version="1.1" id="Layer_1" xmlns="http://www.w3.org/2000/svg" xmlns:xlink="http://www.w3.org/1999/xlink" x="0px" y="0px"
	 viewBox="0 0 512 512" style="enable-background:new 0 0 512 512;" xml:space="preserve">
<path style="fill:#FFC72D;" d="M433.776,491.595c-2.298-25.587-4.083-46.092-5.52-62.639c-7.802-89.589-0.042-56.346-52.911-189.902
	v-53.748l6.818-21.616l16.534-52.449c1.711-5.457,0.849-11.401-2.36-16.134c-15.21-22.453-23.077-51.437-20.043-73.865
	C377.83,10.085,369.142,0,357.738,0h-52.424c-7.78,0-14.748,4.808-17.508,12.088l-8.03,21.142
	c-8.296,21.905-39.257,21.9-47.566-0.012l-8.017-21.129C221.434,4.808,214.466,0,206.686,0h-52.424
	c-11.4,0-20.092,10.083-18.557,21.242c3.035,22.416-4.833,51.412-20.043,73.865c-3.209,4.733-4.071,10.677-2.36,16.134
	l16.534,52.449l6.818,21.616v53.748C83.837,372.481,91.577,339.195,83.731,429.056c-1.436,16.534-3.222,37.001-5.507,62.539
	C77.236,502.506,85.849,512,96.88,512H415.12C426.165,512,434.763,502.493,433.776,491.595z"/>
<path style="fill:#FFAF00;" d="M433.776,491.595c-2.298-25.587-4.083-46.092-5.52-62.639c-7.802-89.587-0.042-56.346-52.911-189.902
	v-53.748l6.818-21.616l16.534-52.449c1.711-5.457,0.849-11.401-2.36-16.134c-15.21-22.453-23.077-51.437-20.043-73.865
	C377.83,10.085,369.142,0,357.738,0h-52.424c-7.78,0-14.748,4.808-17.508,12.088l-8.03,21.142
	C275.63,44.182,265.815,49.657,256,49.655V512h159.12C426.165,512,434.763,502.493,433.776,491.595z"/>
<rect x="136.654" y="185.307" style="fill:#FF423D;" width="238.692" height="53.748"/>
<rect x="256" y="185.307" style="fill:#F32E28;" width="119.346" height="53.748"/>
<g>
</g>
<g>
</g>
<g>
</g>
<g>
</g>
<g>
</g>
<g>
</g>
<g>
</g>
<g>
</g>
<g>
</g>
<g>
</g>
<g>
</g>
<g>
</g>
<g>
</g>
<g>
</g>
<g>
</g>
</svg>
