<?xml version="1.0" encoding="iso-8859-1"?>
<!-- Generator: Adobe Illustrator 19.0.0, SVG Export Plug-In . SVG Version: 6.00 Build 0)  -->
<svg version="1.1" id="Layer_1" xmlns="http://www.w3.org/2000/svg" xmlns:xlink="http://www.w3.org/1999/xlink" x="0px" y="0px"
	 viewBox="0 0 512 512" style="enable-background:new 0 0 512 512;" xml:space="preserve">
<g transform="translate(1 1)">
	<path style="fill:#FFE100;" d="M400.067,297.667c-18.773,0-34.133-15.36-34.133-34.133v-17.067
		c0-18.773,15.36-34.133,34.133-34.133h51.2h17.067V92.867c0-18.773-15.36-34.133-34.133-34.133H41.667
		c-18.773,0-34.133,15.36-34.133,34.133v324.267c0,18.773,15.36,34.133,34.133,34.133H434.2c18.773,0,34.133-15.36,34.133-34.133
		V297.667h-17.067H400.067z"/>
	<path style="fill:#FFFFFF;" d="M33.133,417.133V92.867c0-18.773,15.36-34.133,34.133-34.133h-25.6
		c-18.773,0-34.133,15.36-34.133,34.133v324.267c0,18.773,15.36,34.133,34.133,34.133h25.6
		C48.493,451.267,33.133,435.907,33.133,417.133"/>
	<path style="fill:#FDCC00;" d="M468.333,297.667h-68.267c-18.773,0-34.133-15.36-34.133-34.133v-17.067
		c0-18.773,15.36-34.133,34.133-34.133h68.267c18.773,0,34.133,15.36,34.133,34.133v17.067
		C502.467,282.307,487.107,297.667,468.333,297.667"/>
	<path d="M425.667,255c0,5.12-3.413,8.533-8.533,8.533S408.6,260.12,408.6,255s3.413-8.533,8.533-8.533S425.667,249.88,425.667,255"
		/>
	<path d="M468.333,306.2h-68.267c-23.893,0-42.667-18.773-42.667-42.667v-17.067c0-23.893,18.773-42.667,42.667-42.667h68.267
		c23.893,0,42.667,18.773,42.667,42.667v17.067C511,287.427,492.227,306.2,468.333,306.2z M400.067,220.867
		c-14.507,0-25.6,11.093-25.6,25.6v17.067c0,14.507,11.093,25.6,25.6,25.6h68.267c14.507,0,25.6-11.093,25.6-25.6v-17.067
		c0-14.507-11.093-25.6-25.6-25.6H400.067z"/>
	<path d="M16.067,118.467H7.533c-5.12,0-8.533-3.413-8.533-8.533c0-5.12,3.413-8.533,8.533-8.533h8.533
		c5.12,0,8.533,3.413,8.533,8.533C24.6,115.053,21.187,118.467,16.067,118.467z"/>
	<path d="M117.613,118.467h-14.507c-5.12,0-8.533-3.413-8.533-8.533c0-5.12,3.413-8.533,8.533-8.533h14.507
		c5.12,0,8.533,3.413,8.533,8.533C126.147,115.053,122.733,118.467,117.613,118.467z M67.267,118.467H52.76
		c-5.12,0-8.533-3.413-8.533-8.533c0-5.12,3.413-8.533,8.533-8.533h14.507c5.12,0,8.533,3.413,8.533,8.533
		C75.8,115.053,71.533,118.467,67.267,118.467z"/>
	<path d="M423.107,118.467H408.6c-5.12,0-8.533-3.413-8.533-8.533c0-5.12,3.413-8.533,8.533-8.533h14.507
		c5.12,0,8.533,3.413,8.533,8.533C431.64,115.053,428.227,118.467,423.107,118.467z M372.76,118.467h-14.507
		c-5.12,0-8.533-3.413-8.533-8.533c0-5.12,3.413-8.533,8.533-8.533h14.507c5.12,0,8.533,3.413,8.533,8.533
		C381.293,115.053,377.027,118.467,372.76,118.467z M321.56,118.467h-14.507c-5.12,0-8.533-3.413-8.533-8.533
		c0-5.12,3.413-8.533,8.533-8.533h14.507c5.12,0,8.533,3.413,8.533,8.533C330.093,115.053,326.68,118.467,321.56,118.467z
		 M270.36,118.467h-14.507c-5.12,0-8.533-3.413-8.533-8.533c0-5.12,3.413-8.533,8.533-8.533h14.507c5.12,0,8.533,3.413,8.533,8.533
		C278.893,115.053,275.48,118.467,270.36,118.467z M220.013,118.467h-14.507c-5.12,0-8.533-3.413-8.533-8.533
		c0-5.12,3.413-8.533,8.533-8.533h14.507c5.12,0,8.533,3.413,8.533,8.533C228.547,115.053,224.28,118.467,220.013,118.467z
		 M168.813,118.467h-14.507c-5.12,0-8.533-3.413-8.533-8.533c0-5.12,3.413-8.533,8.533-8.533h14.507c5.12,0,8.533,3.413,8.533,8.533
		C177.347,115.053,173.933,118.467,168.813,118.467z"/>
	<path d="M468.333,118.467H459.8c-5.12,0-8.533-3.413-8.533-8.533c0-5.12,3.413-8.533,8.533-8.533h8.533
		c5.12,0,8.533,3.413,8.533,8.533C476.867,115.053,473.453,118.467,468.333,118.467z"/>
	<path d="M16.067,263.533H7.533C2.413,263.533-1,260.12-1,255s3.413-8.533,8.533-8.533h8.533c5.12,0,8.533,3.413,8.533,8.533
		S21.187,263.533,16.067,263.533z"/>
	<path d="M135.533,263.533h-17.067c-5.12,0-8.533-3.413-8.533-8.533s3.413-8.533,8.533-8.533h17.067c5.12,0,8.533,3.413,8.533,8.533
		S140.653,263.533,135.533,263.533z M75.8,263.533H58.733c-5.12,0-8.533-3.413-8.533-8.533s3.413-8.533,8.533-8.533H75.8
		c5.12,0,8.533,3.413,8.533,8.533S80.92,263.533,75.8,263.533z"/>
	<path d="M314.733,263.533h-17.067c-5.12,0-8.533-3.413-8.533-8.533s3.413-8.533,8.533-8.533h17.067c5.12,0,8.533,3.413,8.533,8.533
		S319.853,263.533,314.733,263.533z M255,263.533h-17.067c-5.12,0-8.533-3.413-8.533-8.533s3.413-8.533,8.533-8.533H255
		c5.12,0,8.533,3.413,8.533,8.533S260.12,263.533,255,263.533z M195.267,263.533H178.2c-5.12,0-8.533-3.413-8.533-8.533
		s3.413-8.533,8.533-8.533h17.067c5.12,0,8.533,3.413,8.533,8.533S200.387,263.533,195.267,263.533z"/>
	<path d="M365.933,263.533H357.4c-5.12,0-8.533-3.413-8.533-8.533s3.413-8.533,8.533-8.533h8.533c5.12,0,8.533,3.413,8.533,8.533
		S371.053,263.533,365.933,263.533z"/>
	<path d="M16.067,408.6H7.533c-5.12,0-8.533-3.413-8.533-8.533s3.413-8.533,8.533-8.533h8.533c5.12,0,8.533,3.413,8.533,8.533
		S21.187,408.6,16.067,408.6z"/>
	<path d="M117.613,408.6h-14.507c-5.12,0-8.533-3.413-8.533-8.533s3.413-8.533,8.533-8.533h14.507c5.12,0,8.533,3.413,8.533,8.533
		S122.733,408.6,117.613,408.6z M67.267,408.6H52.76c-5.12,0-8.533-3.413-8.533-8.533s3.413-8.533,8.533-8.533h14.507
		c5.12,0,8.533,3.413,8.533,8.533S71.533,408.6,67.267,408.6z"/>
	<path d="M423.107,408.6H408.6c-5.12,0-8.533-3.413-8.533-8.533s3.413-8.533,8.533-8.533h14.507c5.12,0,8.533,3.413,8.533,8.533
		S428.227,408.6,423.107,408.6z M372.76,408.6h-14.507c-5.12,0-8.533-3.413-8.533-8.533s3.413-8.533,8.533-8.533h14.507
		c5.12,0,8.533,3.413,8.533,8.533S377.027,408.6,372.76,408.6z M321.56,408.6h-14.507c-5.12,0-8.533-3.413-8.533-8.533
		s3.413-8.533,8.533-8.533h14.507c5.12,0,8.533,3.413,8.533,8.533S326.68,408.6,321.56,408.6z M270.36,408.6h-14.507
		c-5.12,0-8.533-3.413-8.533-8.533s3.413-8.533,8.533-8.533h14.507c5.12,0,8.533,3.413,8.533,8.533S275.48,408.6,270.36,408.6z
		 M220.013,408.6h-14.507c-5.12,0-8.533-3.413-8.533-8.533s3.413-8.533,8.533-8.533h14.507c5.12,0,8.533,3.413,8.533,8.533
		S224.28,408.6,220.013,408.6z M168.813,408.6h-14.507c-5.12,0-8.533-3.413-8.533-8.533s3.413-8.533,8.533-8.533h14.507
		c5.12,0,8.533,3.413,8.533,8.533S173.933,408.6,168.813,408.6z"/>
	<path d="M468.333,408.6H459.8c-5.12,0-8.533-3.413-8.533-8.533s3.413-8.533,8.533-8.533h8.533c5.12,0,8.533,3.413,8.533,8.533
		S473.453,408.6,468.333,408.6z"/>
	<path d="M434.2,459.8H41.667C17.773,459.8-1,441.027-1,417.133V92.867C-1,68.973,17.773,50.2,41.667,50.2H434.2
		c23.893,0,42.667,18.773,42.667,42.667v119.467c0,5.12-3.413,8.533-8.533,8.533h-68.267c-14.507,0-25.6,11.093-25.6,25.6v17.067
		c0,14.507,11.093,25.6,25.6,25.6h68.267c5.12,0,8.533,3.413,8.533,8.533v119.467C476.867,441.027,458.093,459.8,434.2,459.8z
		 M41.667,67.267c-14.507,0-25.6,11.093-25.6,25.6v324.267c0,14.507,11.093,25.6,25.6,25.6H434.2c14.507,0,25.6-11.093,25.6-25.6
		V306.2h-59.733c-23.893,0-42.667-18.773-42.667-42.667v-17.067c0-23.893,18.773-42.667,42.667-42.667H459.8V92.867
		c0-14.507-11.093-25.6-25.6-25.6H41.667z"/>
</g>
<g>
</g>
<g>
</g>
<g>
</g>
<g>
</g>
<g>
</g>
<g>
</g>
<g>
</g>
<g>
</g>
<g>
</g>
<g>
</g>
<g>
</g>
<g>
</g>
<g>
</g>
<g>
</g>
<g>
</g>
</svg>
